# xmcd
# Copyright (C) 1995-1998 Ti Kan
#
# Track frame offsets:
#       150
#       15460
#       33985
#       50512
#       66412
#       79425
#
# Disc length: 1232 seconds
#
# Revision: 0
# Processed by: cddbd v1.4PL0 Copyright (c) Steve Scherf et al.
# Submitted via: CD-Transfer v1.0
#
DISCID=4a04ce06
DTITLE=Made In Mind - Love Is For Free
DYEAR=2001
DGENRE=
TTITLE0=Love Is For Free
TTITLE1=Beautiful
TTITLE2=About Time
TTITLE3=Tell Me
TTITLE4=Money Makes
TTITLE5=Photograph
EXTD=
EXTT0=
EXTT1=
EXTT2=
EXTT3=
EXTT4=
EXTT5=
PLAYORDER=
